<svg
  width="162"
  height="143"
  viewBox="0 0 162 143"
  xmlns="http://www.w3.org/2000/svg"
  fill="none"
>
  <path
    d="M142.027 24.4284C142.027 20.9492 138.226 18.8685 135.315 20.6202L135.036 20.801L93.8589 49.723C85.4383 55.6373 74.2262 55.6306 65.8223 49.7533L65.4246 49.4697L27.0278 21.4646C24.0951 19.3256 19.9726 21.4179 19.9726 25.0454V123.048H39.4641V143H0V25.0454C0 5.09415 22.6754 -6.41501 38.8053 5.34955L77.201 33.3546L77.4957 33.5517C78.995 34.4725 80.9137 34.4253 82.3718 33.4012L123.549 4.47923L124.312 3.96397C140.414 -6.51743 162 4.98512 162 24.4284V143H142.027V24.4284Z"
    fill="#EDEDED"
  />
  <path
    d="M41 87.2683C41 81.045 46.1487 76 52.5 76C58.8513 76 64 81.045 64 87.2683V108.732C64 114.955 58.8513 120 52.5 120C46.1487 120 41 114.955 41 108.732V87.2683Z"
    fill="#EDEDED"
  />
  <path
    d="M83 87.2683C83 81.045 88.1487 76 94.5 76C100.851 76 106 81.045 106 87.2683V108.732C106 114.955 100.851 120 94.5 120C88.1487 120 83 114.955 83 108.732V87.2683Z"
    fill="#EDEDED"
  />
</svg>
